# xmcd CD database file
#
# Track frame offsets:
#	150
#	13393
#	29371
#	44617
#	66276
#	80764
#	95655
#	111037
#	138625
#	157995
#	172553
#	185955
#	196249
#	210653
#	221601
#	232984
#	247708
#	261233
#	276086
#	287939
#	300813
#
# Disc length: 4196 seconds
#
# Revision: 0
# Processed by: cddbd v1.5.2PL0 Copyright (c) Steve Scherf et al.
# Submitted via: CDex 1.70beta2
#
DISCID=2f106215
DTITLE=Woody Herman - Pillar To Post
DYEAR=2004
DGENRE=Jazz
TTITLE0=Blue Flame
TTITLE1=Bijou
TTITLE2=Blowin' Up A Storm
TTITLE3=WoodChopper's Ball
TTITLE4=Northwest Passage
TTITLE5=Apple Honey
TTITLE6=Goosey Gander
TTITLE7=Body And Soul
TTITLE8=Early Autumn
TTITLE9=Aruba
TTITLE10=I Can't Get Started
TTITLE11=The Grind
TTITLE12=Single-O
TTITLE13=Pillar To Post
TTITLE14=Stompin' At The Savoy
TTITLE15=Surrender
TTITLE16=Mabel, Mabel
TTITLE17=Steps
TTITLE18=Lost Weekend
TTITLE19=The Goof and I
TTITLE20=P.S. I Love You
EXTD=YEAR: 2004
EXTT0=
EXTT1=
EXTT2=
EXTT3=
EXTT4=
EXTT5=
EXTT6=
EXTT7=
EXTT8=
EXTT9=
EXTT10=
EXTT11=
EXTT12=
EXTT13=
EXTT14=
EXTT15=
EXTT16=
EXTT17=
EXTT18=
EXTT19=
EXTT20=
PLAYORDER=
